<svg version="1.2" xmlns="http://www.w3.org/2000/svg" viewBox="0 0 1491 1530" width="1491" height="1530">
	<title>246956b9-4a32-45f3-ad11-862aad3f24ee-_1_ (1)</title>
	<style>
		.s0 { opacity: .99;fill: #0d81b0 } 
	</style>
	<path id="Path 0" fill-rule="evenodd" class="s0" d="m757 24.71c4.67 0.25 11.65 0.86 15.5 1.36 3.85 0.5 9.25 1.31 12 1.8 2.75 0.49 8.15 2.2 12 3.8 3.85 1.6 11.27 5.77 16.5 9.28 6.44 4.32 13.63 10.58 22.33 19.46 7.06 7.2 14.42 15.56 16.36 18.59 1.95 3.03 4.47 6.85 5.61 8.5 1.14 1.65 4.09 7.05 6.56 12 2.46 4.95 6.43 11.59 8.81 14.75 2.38 3.16 6.02 6.89 8.08 8.27 2.06 1.39 6.67 3.37 10.25 4.39 3.58 1.03 9.42 2.39 13 3.02 3.58 0.64 8.75 1.57 11.5 2.08 2.75 0.5 9.5 1.62 15 2.48 5.5 0.86 11.8 1.99 14 2.5 2.2 0.52 10.52 2.1 18.5 3.52 7.98 1.43 16.98 3.08 20 3.68 3.02 0.6 10 2.1 15.5 3.34 5.5 1.25 12.7 2.82 16 3.5 3.3 0.69 9.83 2.24 14.5 3.45 4.67 1.22 10.97 2.77 14 3.46 3.03 0.69 10.9 2.79 17.5 4.67 6.6 1.89 14.7 4.16 18 5.05 3.3 0.89 14.1 4.08 24 7.09 9.9 3.01 24.53 7.73 32.5 10.49 7.97 2.76 19.67 7 26 9.42 6.33 2.42 16 6.25 21.5 8.52 5.5 2.27 16.53 6.95 24.5 10.4 7.97 3.45 19.45 8.5 25.5 11.22 6.05 2.73 18.42 8.43 27.5 12.67 9.08 4.24 19.88 9.28 24 11.21 4.13 1.92 10.42 4.41 14 5.52 4.79 1.48 7.82 1.84 11.5 1.35 3.15-0.41 7.41-2.1 11.5-4.56 3.58-2.15 9.65-5.34 13.5-7.09 3.85-1.76 9.7-4.05 13-5.1 3.87-1.24 10.43-2.13 18.5-2.51 10.39-0.49 13.43-0.28 18 1.19 3.03 0.98 8.42 3.39 12 5.35 3.58 1.96 9.88 6.14 14 9.29 4.13 3.15 9.35 7.67 11.61 10.05 2.26 2.38 6.45 7.48 9.31 11.33 2.87 3.85 6.96 10.6 9.11 15 2.14 4.4 4.57 10.25 5.38 13 0.82 2.75 2.01 7.93 2.64 11.5 0.63 3.57 1.54 9.2 2.02 12.5 0.48 3.3 0.88 15.9 0.89 28 0.01 12.1-0.42 24.93-0.94 28.5-0.53 3.57-1.61 9.65-2.4 13.5-0.79 3.85-2.44 9.93-3.68 13.5-1.23 3.57-4.5 10.77-7.27 16-2.76 5.23-6.59 11.75-8.5 14.5-1.91 2.75-4.85 6.8-6.53 9-1.69 2.2-4.8 6.02-6.92 8.5-2.12 2.48-4.95 6.86-6.29 9.75-1.33 2.89-3.12 8.74-3.96 13-0.84 4.26-1.92 12.93-2.4 19.25-0.48 6.32-1.17 43.67-1.54 83-0.63 69-0.59 71.66 1.26 76 1.29 3.04 3.83 6.06 7.81 9.31 3.25 2.64 9.66 8.94 14.25 14 4.6 5.05 10.28 12.11 12.64 15.69 2.35 3.58 5.73 9.42 7.52 13 1.78 3.58 4.02 9.2 4.97 12.5 0.95 3.3 2.31 8.48 3.02 11.5 0.71 3.02 1.68 8.2 2.15 11.5 0.47 3.3 1.34 10.05 1.95 15 0.6 4.95 0.85 13.73 0.55 19.5-0.3 5.77-0.99 12.52-1.53 15-0.53 2.48-1.71 7.87-2.62 12-0.9 4.12-2.35 9.75-3.21 12.5-0.87 2.75-2.75 7.91-4.18 11.47-1.44 3.56-5.56 11.89-9.16 18.5-3.6 6.62-8.19 14.51-10.2 17.53-2.01 3.02-6.65 8.87-10.3 13-3.66 4.12-7.45 9.08-8.44 11-0.99 1.92-2.13 5.75-2.54 8.5-0.4 2.75-1.17 5.9-1.71 7-0.54 1.1-1.39 18.42-1.89 38.5-0.5 20.08-1.2 55.4-2.23 120.5l2.36 4c1.31 2.2 5.1 6.92 8.44 10.5 3.33 3.58 8.58 9.65 11.65 13.5 3.07 3.85 8.23 11.05 11.46 16 3.23 4.95 7.8 12.94 10.16 17.75 2.36 4.81 5.14 11.56 6.18 15 1.04 3.44 2.43 8.5 3.1 11.25 0.66 2.75 1.44 11.75 1.71 20 0.29 8.5 0.03 18.68-0.6 23.5-0.61 4.67-1.56 11.65-2.11 15.5-0.55 3.85-1.43 8.35-1.94 10-0.51 1.65-1.83 5.92-2.92 9.5-1.09 3.58-3.42 9.87-5.18 14-1.75 4.12-4.83 9.96-6.82 12.98-2 3.01-6.93 9.08-10.96 13.5-4.04 4.41-10.34 10.84-14 14.29-3.67 3.44-9.82 8.45-13.67 11.13-3.85 2.68-9.7 5.98-13 7.33-3.3 1.35-8.7 3.25-12 4.22-3.3 0.97-8.7 2.13-12 2.57-4.73 0.64-7.43 0.4-12.75-1.11-3.71-1.05-10.24-3.79-14.5-6.09-4.26-2.3-9.78-5.52-12.25-7.16-2.47-1.64-7.09-5.39-10.25-8.32-5.43-5.04-6.04-5.34-11-5.35-2.9 0-6.14 0.62-7.25 1.4-1.1 0.77-14.15 7.48-29 14.9-14.85 7.42-31.95 15.74-38 18.49-6.05 2.74-15.05 6.68-20 8.74-4.95 2.06-14.62 5.97-21.5 8.7-6.87 2.73-17.45 6.75-23.5 8.94-6.05 2.2-17.75 6.23-26 8.97-8.25 2.73-21.97 6.95-30.5 9.37-8.53 2.42-20.9 5.82-27.5 7.55-6.6 1.73-13.58 3.5-15.5 3.92-1.92 0.43-8.9 2.13-15.5 3.79-6.6 1.66-14.25 3.49-17 4.07-2.75 0.58-9.27 2.02-14.5 3.2-5.23 1.18-11.75 2.55-14.5 3.03-2.75 0.49-8.15 1.58-12 2.43-3.85 0.86-12.4 2.63-19 3.94-6.6 1.31-16.5 3.1-22 3.99-5.5 0.88-12.92 2.03-16.5 2.54-3.58 0.51-9.42 1.4-13 1.96-3.58 0.57-12.12 1.55-19 2.19-6.87 0.63-14.08 1.51-16 1.95-2.15 0.49-4.52 2.09-6.15 4.12-1.45 1.83-4.28 7.37-6.28 12.32-2 4.95-5.95 12.83-8.77 17.5-2.82 4.67-6.74 10.52-8.71 12.99-1.98 2.47-6.74 7.83-10.59 11.91-3.85 4.07-11.8 11.28-17.66 16-5.86 4.73-14.63 10.7-19.5 13.26-4.86 2.56-10.64 5.16-12.84 5.78-2.2 0.61-7.83 1.86-12.5 2.76-5.74 1.11-13.7 1.64-24.5 1.62-11.03-0.01-18.33-0.52-23.5-1.65-4.12-0.9-9.3-2.15-11.5-2.77-2.2-0.62-7.37-2.83-11.5-4.91-4.12-2.08-12.23-7.14-18-11.25-6.28-4.46-14.73-11.83-21.03-18.35-5.79-5.99-12.57-14.04-15.07-17.89-2.49-3.85-5.49-8.58-6.65-10.5-1.17-1.92-3.67-6.42-5.56-10-2.42-4.58-5.16-7.9-9.31-11.27-3.23-2.62-7.9-5.38-10.38-6.13-2.48-0.74-7.65-1.89-11.5-2.54-3.85-0.64-10.15-1.78-14-2.53-3.85-0.74-9.92-1.87-13.5-2.51-3.58-0.63-8.3-1.55-10.5-2.02-2.2-0.48-8.05-1.6-13-2.49-4.95-0.89-11.25-2.03-14-2.54-2.75-0.5-10.4-2.07-17-3.48-6.6-1.41-13.8-2.99-16-3.51-2.2-0.51-5.35-1.14-7-1.38-1.65-0.25-5.48-0.95-8.5-1.55-3.02-0.61-7.07-1.53-9-2.04-1.93-0.52-10.25-2.55-18.5-4.51-8.25-1.97-17.02-4.06-19.5-4.66-2.48-0.6-8.1-2.09-12.5-3.32-4.4-1.22-10.25-2.76-13-3.41-2.75-0.65-11.07-3-18.5-5.23-7.43-2.22-22.05-6.88-32.5-10.34-10.45-3.47-26.65-9.32-36-13.01-9.35-3.68-23.98-9.63-32.5-13.23-8.52-3.59-18.87-8-23-9.8-4.12-1.81-14.93-6.55-24-10.53-9.07-3.99-22.8-10.28-30.5-13.98-7.7-3.7-16.02-7-18.5-7.34-4.13-0.57-4.96-0.29-10 3.39-3.03 2.21-8.54 6.03-12.25 8.49-3.71 2.46-9.56 5.89-13 7.61-3.44 1.73-8.72 3.74-11.75 4.47-3.03 0.72-8.87 1.33-13 1.35-4.12 0.02-10.87-0.67-15-1.53-4.12-0.87-10.65-2.79-14.5-4.27-3.85-1.49-10.82-5.22-15.5-8.3-4.87-3.2-11.4-8.74-15.29-12.97-3.74-4.07-9.67-11.67-13.18-16.89-3.51-5.22-8.18-13.33-10.38-18-2.21-4.67-4.89-11.42-5.97-15-1.08-3.58-2.48-8.53-3.12-11-0.63-2.47-1.56-8.55-2.05-13.5-0.5-4.95-1.42-12.15-2.06-16-0.64-3.85-0.96-9.47-0.71-12.5 0.24-3.03 0.98-10 1.64-15.5 0.66-5.5 1.68-12.47 2.25-15.5 0.58-3.03 1.42-7.08 1.88-9 0.46-1.92 1.58-5.53 2.48-8 0.91-2.47 3.02-7.2 4.68-10.5 1.67-3.3 5.35-9.14 8.18-12.97 2.83-3.84 8.86-11.27 13.39-16.5 4.52-5.24 9.33-11.56 10.67-14.03q2.44-4.5 4.52-17.25c1.94-11.95 2.07-16.75 2.07-76.25 0-59.62-0.13-64.28-2.09-76.25-1.48-9.1-2.94-14.47-5.07-18.75-1.65-3.3-6-9.38-9.68-13.5-3.67-4.12-8.28-9.52-10.24-12-1.96-2.48-5.15-6.98-7.1-10-1.95-3.02-4.7-7.75-6.11-10.5-1.41-2.75-3.25-6.58-4.08-8.5-0.84-1.92-2.16-5.75-2.95-8.5-0.79-2.75-1.97-7.02-2.62-9.5-0.65-2.48-1.7-9.45-2.33-15.5-0.63-6.05-1.14-17.75-1.12-26 0.01-8.25 0.47-19.95 1.02-26 0.55-6.05 1.53-12.01 2.19-13.25 0.65-1.24 1.18-3.15 1.18-4.25 0-1.1 1.41-6.16 3.14-11.25 1.73-5.09 4.66-12.29 6.5-16 1.85-3.71 5.27-9.56 7.61-13 2.34-3.43 8.81-10.97 14.38-16.75 9.37-9.7 10.3-11.04 12.28-17.5 1.95-6.35 2.23-10.61 3.1-46 0.52-21.45 0.96-62.06 0.97-90.25 0.02-48.53-0.08-51.45-1.89-55-1.06-2.06-4.55-6.23-7.77-9.25-3.22-3.02-9.58-9.77-14.14-15-6.79-7.78-9.43-11.85-14.57-22.5-3.46-7.15-6.99-15.48-7.86-18.5-0.86-3.02-2.13-7.98-2.81-11-0.69-3.02-1.64-8.43-2.12-12-0.49-3.57-1.12-12.35-1.42-19.5-0.38-8.96-0.07-16.58 1-24.5 0.85-6.32 2.07-13.52 2.72-16 0.64-2.48 2.71-9.45 4.59-15.5 1.88-6.05 5.52-14.98 8.1-19.84 3.2-6.03 7.27-11.6 12.78-17.5 4.45-4.76 11.2-11.19 15-14.29 3.8-3.1 9.61-6.98 12.91-8.64 3.3-1.65 9.15-3.96 13-5.14 4.95-1.51 9.63-2.13 16-2.12 4.95 0 11.25 0.42 14 0.93 2.75 0.51 9.73 3.19 15.5 5.96 5.78 2.78 14.66 7.76 19.75 11.09 8 5.23 9.89 6.05 14 6.07 3.61 0.01 6.54-0.92 12.25-3.91 4.13-2.17 16.73-8.19 28-13.39 11.28-5.19 24.77-11.6 30-14.24 5.23-2.63 15.8-7.46 23.5-10.72 7.7-3.26 20.98-8.87 29.5-12.47 8.52-3.59 17.75-7.42 20.5-8.51 2.75-1.09 6.35-2.68 8-3.55 1.65-0.86 9.75-3.99 18-6.94 8.25-2.96 20.18-7 26.5-8.98 6.32-1.98 16.45-5.13 22.5-7 6.05-1.87 14.15-4.3 18-5.39 3.85-1.09 15.77-4.23 26.5-6.98 10.73-2.75 21.75-5.48 24.5-6.07 2.75-0.59 6.57-1.43 8.5-1.87 1.93-0.44 5.75-1.28 8.5-1.86 2.75-0.59 8.15-1.78 12-2.64 3.85-0.87 9.48-1.99 12.5-2.5 3.02-0.5 9.77-1.78 15-2.83 5.23-1.05 12.65-2.46 16.5-3.13 3.85-0.67 10.6-1.86 15-2.64 4.4-0.78 10.02-1.83 12.5-2.34 2.48-0.51 8.33-1.47 13-2.14 4.67-0.66 12.1-2.02 16.5-3 4.4-0.99 9.58-2.44 11.5-3.23 1.92-0.79 5.2-3.4 7.27-5.81 2.08-2.41 3.76-4.72 3.75-5.13-0.01-0.41 1.42-4.46 3.18-9 1.77-4.54 6.25-12.75 9.96-18.25 3.71-5.5 10.03-13.56 14.04-17.92 4.02-4.36 13.15-13.05 20.3-19.31 9.57-8.39 15.31-12.56 21.75-15.83 4.81-2.44 9.76-4.43 11-4.42 1.24 0.01 3.6-0.45 5.25-1.03 1.65-0.57 8.17-1.42 14.5-1.88 6.33-0.47 15.33-0.65 20-0.4zm-171.5 156.32c-4.4 0.61-10.7 1.5-14 1.97-3.3 0.47-8.92 1.36-12.5 1.97-3.58 0.61-9.87 1.82-14 2.7-4.12 0.87-9.3 1.93-11.5 2.35-2.2 0.42-6.25 1.23-9 1.81-2.75 0.57-7.48 1.72-10.5 2.54-3.02 0.83-8.2 2.24-11.5 3.15-3.3 0.91-10.95 2.95-17 4.54-6.05 1.58-15.05 4.04-20 5.45-4.95 1.42-11.48 3.24-14.5 4.06-3.02 0.82-12.7 3.75-21.5 6.5-8.8 2.76-22.98 7.32-31.5 10.14-8.52 2.81-21.8 7.46-29.5 10.33-7.7 2.86-20.98 7.9-29.5 11.18-8.52 3.29-20.68 8.24-27 11-6.32 2.77-17.8 7.8-25.5 11.19-7.7 3.39-25.25 11.91-39 18.94-24.4 12.48-25.05 12.89-27.19 17.22-1.64 3.32-2.23 6.44-2.34 12.43-0.09 4.4-0.54 12.05-1 17-0.46 4.95-1.51 13.73-2.33 19.5-0.82 5.77-2.38 14.55-3.47 19.5-1.09 4.95-3.32 13.05-4.96 18-1.63 4.95-5.03 13.5-7.56 19-2.52 5.5-5.27 12.36-6.12 15.25-0.96 3.3-1.21 5.9-0.66 7 0.48 0.96 3.74 4.37 7.25 7.58 3.51 3.21 15.16 12.47 25.88 20.58 10.73 8.1 22.2 16.61 25.5 18.9 3.3 2.29 7.53 5.41 9.4 6.93 2.97 2.41 4.1 2.72 9 2.43 4.29-0.26 8.17-1.58 16.6-5.66 6.05-2.92 13.7-6.53 17-8.02 3.3-1.48 9.15-3.78 13-5.11 5.57-1.91 9.04-2.4 17-2.4 6.57 0 12.57 0.65 17.5 1.91 4.13 1.05 11.1 3.34 15.5 5.08 4.4 1.75 11.6 5.25 16 7.8 4.4 2.54 11.38 7.19 15.5 10.31 4.13 3.13 9.98 8.12 13 11.09 3.02 2.96 7.56 8.07 10.07 11.36 2.51 3.28 6.87 9.8 9.68 14.47 2.81 4.67 6.3 11.2 7.75 14.5 1.46 3.3 4.3 9.32 6.32 13.39 2.22 4.46 5.27 8.75 7.68 10.83 2.2 1.89 5.57 4.1 7.5 4.91 1.93 0.81 6.43 2.09 10 2.85 3.57 0.77 10.77 2.07 16 2.91 5.23 0.84 14.45 2.26 20.5 3.15 6.05 0.9 15.05 2.29 20 3.1 4.95 0.8 12.38 1.91 16.5 2.45 4.13 0.54 13.58 1.63 21 2.43 7.42 0.79 16.88 1.92 21 2.5 4.13 0.59 11.1 1.47 15.5 1.97 4.4 0.51 13.85 1.41 21 2.01 11.32 0.96 13.29 0.9 15.25-0.45 1.24-0.85 3.49-3.36 5-5.57 1.51-2.21 6.16-8.62 10.33-14.25 4.17-5.63 12.35-14.73 18.16-20.23 7.44-7.03 13.8-11.92 21.42-16.46 5.96-3.55 13.09-7.32 15.84-8.38 2.75-1.05 6.58-2.31 8.5-2.78 1.92-0.48 6.88-1.64 11-2.57 5.77-1.31 12.57-1.71 29.5-1.76 18.39-0.04 23.15 0.26 29 1.81 3.85 1.02 11.05 3.75 16 6.05 4.95 2.31 13.73 7.28 19.5 11.06 6.43 4.2 14.51 10.77 20.84 16.95 5.7 5.56 14.44 15.64 19.5 22.48 5.04 6.83 10.51 13.31 12.16 14.41 2.41 1.62 3.98 1.89 8 1.4 2.75-0.33 8.6-1.11 13-1.73 4.4-0.62 10.92-1.51 14.5-1.98 3.58-0.47 10.1-1.34 14.5-1.93 4.4-0.6 14.3-1.76 22-2.58 7.7-0.83 17.15-1.96 21-2.53 3.85-0.57 10.15-1.45 14-1.95 3.85-0.51 11.73-1.63 17.5-2.5 5.77-0.87 14.33-1.99 19-2.49 4.67-0.51 13.67-1.78 20-2.83 6.33-1.05 12.85-2.61 14.5-3.47 1.65-0.86 4.65-3.28 6.66-5.39 2.79-2.92 4.54-6.43 7.38-14.83 2.57-7.58 5.76-14.26 10.27-21.5 3.6-5.77 8.43-12.98 10.75-16 2.31-3.02 6.84-7.99 10.07-11.03 3.23-3.04 9.25-8.24 13.37-11.56 4.13-3.32 10.88-8.13 15-10.7 4.13-2.57 12.67-6.73 19-9.26 6.33-2.52 14.65-5.21 18.5-5.98 5.04-1 9.1-1.15 14.5-0.54 4.92 0.56 11.45 2.39 19 5.34 6.33 2.48 16.9 7.17 23.5 10.43 11.39 5.64 12.28 5.91 17.53 5.37 4.31-0.44 6.52-1.35 9.96-4.07 2.43-1.93 7.66-5.75 11.62-8.5 3.96-2.75 10.51-7.5 14.55-10.56 4.04-3.06 12.06-9.63 17.84-14.59 5.78-4.97 12.41-11.12 14.75-13.69 3.18-3.48 4.25-5.48 4.24-7.91 0-1.79-0.72-5.27-1.6-7.75-0.88-2.48-2.95-7.87-4.6-12-1.65-4.12-3.57-9.07-4.26-11-0.7-1.93-1.95-5.98-2.8-9-0.84-3.02-2.04-7.52-2.66-10-0.62-2.48-2.01-8.55-3.09-13.5-1.07-4.95-1.96-11.48-1.97-14.5-0.01-3.02-0.45-7.07-0.97-9-0.52-1.93-1.42-10.59-2-19.25-0.97-14.69-1.23-16.02-3.79-19.74-2.38-3.45-5.65-5.46-24.25-14.9-11.83-6-33.87-16.74-49-23.86-15.12-7.13-35.83-16.37-46-20.53-10.17-4.17-23-9.23-28.5-11.24-5.5-2.01-18.1-6.33-28-9.61-9.9-3.27-22.28-7.09-27.5-8.49-5.22-1.4-9.72-2.69-10-2.88-0.28-0.19-5-1.55-10.5-3.02-5.5-1.47-11.35-3.04-13-3.49-1.65-0.45-9.3-2.48-17-4.53-7.7-2.04-18.95-4.79-25-6.1-6.05-1.32-15.73-3.31-21.5-4.44-5.77-1.13-17.02-3.36-25-4.95-7.98-1.59-17.42-3.41-21-4.04-3.58-0.64-8.98-1.51-12-1.94-3.02-0.44-10.23-1.53-16-2.42-5.77-0.9-15.67-1.91-22-2.24-11.13-0.59-11.59-0.54-14.23 1.78-1.49 1.31-4.76 6.1-7.25 10.64-2.48 4.54-6.96 11.96-9.95 16.5-2.99 4.54-9.44 12.53-14.33 17.75-4.9 5.23-12.46 12.47-16.82 16.09-4.36 3.63-10.84 8.47-14.42 10.77-3.58 2.29-9.87 5.27-14 6.61-4.12 1.34-10.2 2.89-13.5 3.44-3.3 0.56-10.73 1.5-16.5 2.11-7.76 0.81-12.98 0.8-20-0.05-5.23-0.64-13.55-2-18.5-3.03-4.95-1.03-11.7-2.8-15-3.94-3.3-1.13-8.7-3.68-12-5.65-3.3-1.98-9.6-6.41-14-9.85-4.4-3.45-12.61-11.04-18.25-16.88-5.64-5.84-11.02-11.86-11.97-13.37-0.95-1.51-3.39-5-5.42-7.75-2.04-2.75-5.57-8.6-7.86-13-2.28-4.4-5.24-9.01-6.58-10.25-2.26-2.11-3.24-2.24-15.17-2.12-7.01 0.07-15.67 0.5-19.25 0.96-3.58 0.45-10.1 1.32-14.5 1.94zm751.45 296.7c-1.96 2.08-7.75 7.37-12.87 11.77-5.12 4.4-10.95 9.38-12.95 11.07-1.99 1.69-8.8 7.06-15.13 11.94-6.33 4.87-14.2 11.11-17.5 13.86-3.3 2.75-8.33 7.51-11.17 10.57-2.84 3.06-5.88 7.25-6.75 9.31-0.87 2.06-2.23 7.01-3.03 11-0.8 3.99-1.95 18.73-2.56 32.75-0.61 14.02-1.76 29.55-2.56 34.5-0.79 4.95-1.44 10.58-1.43 12.5 0.01 1.92 0.43 5.08 0.94 7 0.52 1.92 2.93 5.75 5.36 8.5 2.44 2.75 11.72 10.17 20.62 16.5 8.91 6.33 19.43 13.76 23.39 16.51 3.95 2.76 9.22 6.47 11.69 8.26 2.47 1.78 6.53 3.74 9 4.34 2.61 0.64 5.18 0.74 6.11 0.25 0.89-0.47 3.37-2.89 5.5-5.37 2.14-2.48 7.72-8.07 12.39-12.42 4.67-4.36 9.85-9.74 11.5-11.97l3-4.04c0-111.96-0.46-142.93-1.34-158.06-0.91-15.61-1.96-25.33-3.25-30.25-1.05-3.99-1.91-7.48-1.91-7.75 0-0.27-0.79-0.49-1.75-0.48-0.96 0.01-4 1.35-6.75 2.98-2.75 1.63-6.6 4.66-8.55 6.73zm-1188.97 5.77c-0.02 1.1-0.57 11.23-1.23 22.5-0.67 11.38-1.21 45.41-1.23 76.5-0.01 36.74 0.41 60.9 1.23 70.25 1.03 11.76 1.78 15.52 4.26 21.5 2.49 6.01 4.8 9.18 13.5 18.5 5.77 6.19 11.28 11.24 12.24 11.24 0.96-0.01 3.32-1.53 5.25-3.37 1.92-1.84 7.11-5.77 11.52-8.74 4.41-2.96 10.37-7.18 13.25-9.38 2.87-2.2 9.84-7.63 15.48-12.07 5.64-4.43 12.33-10.51 14.88-13.5 2.54-2.99 5.87-7.91 7.38-10.93 2.57-5.12 2.71-6.05 2.08-13.5-0.37-4.4-1.07-25.33-1.56-46.5-0.76-33.39-1.12-39.15-2.7-43.44-1.36-3.66-3.37-6.25-7.83-10.07-3.3-2.82-10.63-8.7-16.28-13.06-5.65-4.36-11.99-9.28-14.09-10.93-2.09-1.65-11.64-8.91-21.22-16.14-10.74-8.1-19.52-13.95-22.91-15.25-3.03-1.16-6.07-2.11-6.76-2.11-0.7 0-2.16 1.46-3.25 3.25-1.09 1.79-2 4.15-2.01 5.25zm295.25 152.66c-1.68 2.39-3.43 5.25-3.89 6.35-0.46 1.11-4.81 8.76-9.66 17-4.86 8.25-10.7 17.91-12.99 21.49-4.03 6.3-4.15 6.73-3.9 14 0.14 4.13 0.95 9.98 1.8 13 0.85 3.03 2.25 7.98 3.1 11 0.85 3.03 3.34 10.67 5.52 17 2.19 6.33 5.25 15.1 6.81 19.5 1.56 4.4 4.48 12.5 6.48 18 2.01 5.5 4.03 11.13 4.5 12.5 0.47 1.38 1.8 4.98 2.96 8 1.17 3.03 3.02 8.2 4.12 11.5 1.09 3.3 3.29 9.15 4.88 13 1.59 3.85 4.02 9.92 5.39 13.5 1.37 3.58 3.44 9.42 4.61 13 1.16 3.58 4.12 11.23 6.56 17 2.75 6.49 5.88 12.07 8.21 14.62 2.79 3.05 5.2 4.52 9.27 5.67 3.02 0.86 9.32 2.26 14 3.13 4.67 0.86 10.52 1.57 13 1.57 2.48 0.01 6.08 0.48 8 1.06 1.92 0.58 7.1 1.09 11.5 1.14 4.4 0.05 8.76-0.31 9.68-0.8 0.92-0.49 5.21-5.61 9.53-11.39 4.32-5.77 10.46-14.33 13.63-19 3.18-4.67 8.31-12.1 11.4-16.5 3.09-4.4 7.56-10.81 9.94-14.25 2.37-3.44 6.27-9.06 8.64-12.5 2.38-3.44 6.86-9.85 9.97-14.25 3.1-4.4 8.73-12.5 12.52-18 3.78-5.5 9.04-13.15 11.69-17 2.65-3.85 7.11-10.15 9.92-14 2.81-3.85 6.88-9.7 9.06-13 2.17-3.3 4.99-7.12 6.27-8.5 1.28-1.37 2.72-4.52 3.2-7 0.63-3.25 0.49-5.33-0.48-7.5-0.75-1.65-2.26-4.58-3.35-6.5-1.1-1.92-3.57-7.55-5.49-12.5-1.91-4.95-4.57-11.47-5.9-14.5-1.34-3.02-2.72-6.96-3.08-8.75-0.36-1.79-1.78-5.05-3.15-7.25-1.38-2.2-3.51-4.65-4.75-5.45-1.24-0.8-4.95-2.16-8.25-3.03-3.3-0.88-10.95-2.28-17-3.12-6.05-0.85-13.92-1.96-17.5-2.47-3.58-0.52-9.65-1.35-13.5-1.84-3.85-0.5-13.52-1.86-21.5-3.02-7.98-1.16-17.42-2.54-21-3.08-3.58-0.53-11-1.66-16.5-2.5-5.5-0.85-12.93-1.96-16.5-2.47-3.58-0.51-10.55-1.44-15.5-2.05-4.95-0.62-12.15-1.74-16-2.49-3.85-0.75-10.65-1.66-15.1-2.02l-8.11-0.65zm550.27 3.99c-9.9 1.13-21.15 2.44-25 2.91-3.85 0.47-10.15 1.31-14 1.86-3.85 0.56-11.5 1.75-17 2.66-5.5 0.9-12.7 2.01-16 2.45-3.3 0.45-9.38 1.3-13.5 1.89-4.13 0.6-12.45 1.72-18.5 2.51-6.05 0.79-11.84 1.8-12.87 2.25-1.03 0.46-2.67 2.18-3.65 3.83-0.97 1.65-3.14 6.37-4.81 10.5-1.67 4.12-4.21 10.87-5.64 15-1.44 4.12-3.54 10.42-4.68 14-1.14 3.57-2.7 8.52-3.47 11-0.77 2.47-1.4 7.2-1.4 10.5 0 4.84 0.68 7.34 3.5 13 1.92 3.85 5.63 10.24 8.25 14.2 2.62 3.96 9.57 14.31 15.44 23 5.88 8.69 13.08 19.03 16 22.99 2.93 3.96 7.35 10.17 9.83 13.81 2.47 3.63 10.87 15.24 18.66 25.8 7.79 10.56 16.79 22.48 20 26.5 3.21 4.02 7.19 9.17 8.84 11.44 1.65 2.28 6.82 8.1 11.5 12.94l8.5 8.79c7.75-0.9 13.37-1.98 17.5-2.98 4.12-1 10.2-2.36 13.5-3.03 3.3-0.67 8.92-2.05 12.5-3.06 5.08-1.43 7.4-2.77 10.63-6.12 2.28-2.36 5.21-6.08 6.53-8.28 1.32-2.2 3.35-6.48 4.52-9.5 1.17-3.03 2.9-7.75 3.85-10.5 0.94-2.75 2.33-6.47 3.09-8.25 0.76-1.79 1.36-3.59 1.35-4-0.02-0.42 0.65-2.1 1.49-3.75 0.84-1.65 1.53-4.02 1.53-5.25 0-1.24 0.46-2.48 1.01-2.75 0.55-0.28 1.28-1.97 1.63-3.75 0.35-1.79 1.21-4.6 1.91-6.25 0.7-1.65 2.64-6.38 4.32-10.5 1.67-4.13 4.6-12 6.51-17.5 1.91-5.5 4.45-12.48 5.64-15.5 1.19-3.03 2.53-6.85 2.97-8.5 0.45-1.65 2.45-7.73 4.45-13.5 1.99-5.78 5.39-15.68 7.55-22 2.16-6.33 5.74-15.89 7.97-21.25l4.05-9.75c-2.77-8.14-5.56-13.2-8-16.5-2.43-3.3-6.63-8.7-9.32-12-2.69-3.3-7.95-9.83-11.67-14.5-3.73-4.68-8.74-9.9-11.15-11.62-2.4-1.71-5.71-3.8-7.36-4.65-1.72-0.88-6.84-1.75-12-2.04-4.95-0.28-13.05-0.08-18 0.44-4.95 0.52-17.1 1.87-27 3.01zm-734.96 67.36c-2.1 1.65-8.15 6.4-13.43 10.56-5.29 4.16-15.12 11.92-21.86 17.25-10.18 8.05-12.6 10.49-14.32 14.44-1.37 3.15-2.4 8.61-3.04 16.25-0.53 6.32-1.39 14.2-1.91 17.5-0.51 3.3-1.45 13.87-2.08 23.5-0.62 9.62-0.91 21.1-0.63 25.5 0.28 4.42 1.34 9.97 2.37 12.42 1.06 2.53 4.03 6.38 6.94 9 2.8 2.52 9.77 7.24 15.5 10.49 5.73 3.26 17.17 9.51 25.42 13.89 8.25 4.39 26.72 13.87 41.05 21.08 14.32 7.22 29.62 14.75 34 16.75 4.37 1.99 15.15 6.91 23.95 10.91 8.8 4.01 16.9 7.87 18 8.57 1.1 0.71 4.7 1.98 8 2.84 3.3 0.86 7.01 1.55 8.25 1.55 1.24 0 6.04-2.59 10.68-5.75 4.63-3.17 13.63-10.82 20-17 11.19-10.89 11.57-11.39 11.55-15.5 0-2.34-1.2-7.18-2.65-10.75-1.46-3.58-2.98-8.08-3.39-10-0.41-1.93-1.73-5.98-2.93-9-1.2-3.03-2.53-6.85-2.96-8.5-0.43-1.65-2.67-7.95-4.99-14-2.31-6.05-4.85-12.47-5.64-14.25-0.78-1.79-1.42-3.7-1.42-4.25 0-0.55-0.62-2.47-1.38-4.25-0.76-1.79-2.79-7.19-4.5-12-1.72-4.82-4.53-12.69-6.25-17.5-1.72-4.82-3.92-10.55-4.89-12.75-0.97-2.2-2.96-7.38-4.44-11.5-1.48-4.13-4.28-11.33-6.22-16-1.95-4.68-5.12-12.33-7.06-17-1.93-4.68-4.81-11.09-6.39-14.25-1.58-3.17-4.8-7.67-7.16-10-3.8-3.77-5.6-4.63-15.75-7.54-6.3-1.8-14.84-4.98-18.96-7.05-4.13-2.08-11.78-5.97-17-8.64-5.23-2.68-11.3-5.04-13.5-5.25-3.72-0.35-4.82 0.24-15.57 8.42-6.36 4.84-13.28 10.16-15.39 11.81zm930.46-9c-5.5 2.47-12.81 5.44-16.25 6.59-3.44 1.15-10.53 2.96-15.75 4.03-5.23 1.08-10.57 2.72-11.87 3.66-1.3 0.95-3.68 4.19-5.29 7.22-1.61 3.02-4.56 10.45-6.56 16.5-1.99 6.05-4.22 12.46-4.95 14.25-0.73 1.78-1.33 3.58-1.33 4 0 0.41-1.57 5.47-3.48 11.25-1.91 5.77-5.07 15-7.03 20.5-1.96 5.5-4.66 13.15-6 17-1.33 3.85-3.98 11.5-5.89 17-1.9 5.5-6.45 18.55-10.11 29-3.66 10.45-7.96 23.27-9.57 28.5-1.61 5.22-3.19 11.75-3.53 14.5-0.33 2.75-0.13 6.8 0.45 9 0.57 2.2 2.83 6.7 5.01 10 2.18 3.3 8.85 11.4 14.84 18 5.98 6.6 12.44 13 14.34 14.23l3.47 2.24c34.1-17.26 52.77-26.76 63.5-32.25 10.72-5.48 20.62-10.67 22-11.52 1.37-0.85 9.25-5.01 17.5-9.25 8.25-4.24 24-12.76 35-18.94 11-6.18 25.62-14.86 32.5-19.3 6.87-4.44 13.97-9.45 15.77-11.14 2.28-2.15 3.26-3.97 3.26-6.07-0.01-1.65-0.63-5.03-1.39-7.5-0.75-2.48-1.93-6.75-2.62-9.5-0.68-2.75-1.62-8.15-2.07-12-0.45-3.85-1.32-11.05-1.93-16-0.81-6.61-0.81-11.13 0-17 0.62-4.4 1.33-10.48 1.6-13.5 0.44-5.11 0.19-5.95-3.57-11.75-2.23-3.44-6-7.72-8.39-9.5-2.38-1.79-9.47-7.1-15.75-11.8-6.28-4.71-15.24-11.27-19.91-14.58-4.68-3.31-13.45-9.42-19.5-13.56-6.05-4.15-12.46-8.28-14.25-9.18-1.79-0.9-4.49-1.59-6-1.53-1.51 0.06-5.79 0.96-9.5 2-3.71 1.04-11.25 3.92-16.75 6.4zm-488.84 60.82c-2.38 2.3-9.6 11.15-16.04 19.68-6.44 8.52-14.82 20-18.61 25.5-3.79 5.5-10.44 15.17-14.77 21.5-4.33 6.32-12.13 17.8-17.35 25.5-5.21 7.7-16.89 24.8-25.94 38-9.06 13.2-17.64 26.47-19.08 29.5l-2.6 5.5c15.54 31 21.31 43.37 22.85 47.5 1.54 4.12 3.98 8.85 5.44 10.5 1.54 1.75 4.46 3.49 7.04 4.2 2.42 0.66 6.87 1.45 9.9 1.76 3.02 0.31 26.2 1.03 51.5 1.61 25.3 0.58 81.66 1.02 125.25 0.99 43.59-0.04 79.98-0.4 80.88-0.81 0.89-0.42 3.41-3.45 5.59-6.75 2.18-3.3 7.46-12.98 11.72-21.5 4.26-8.53 9.61-19.22 11.9-23.75 2.29-4.54 4.24-9.72 4.34-11.5 0.13-2.49-0.99-4.84-4.75-9.96-2.71-3.69-7.15-10.22-9.86-14.5-2.71-4.29-5.86-8.85-7-10.15-1.14-1.3-4.1-5.67-6.57-9.73-2.48-4.05-12.53-19.19-22.33-33.64-9.81-14.45-21.08-31-25.06-36.77-3.98-5.78-9.43-13.65-12.11-17.5-2.67-3.85-7.06-10.15-9.75-14-2.68-3.85-7.21-10.33-10.07-14.39-2.85-4.06-6.31-8.27-7.68-9.35-2.43-1.91-3.07-1.93-23-0.61-11.28 0.74-27.93 1.32-37 1.3-13.97-0.05-17.65-0.39-24-2.26-4.13-1.21-8.4-2.16-9.5-2.11-1.1 0.05-3.58 0.54-5.5 1.08-1.93 0.54-5.45 2.86-7.84 5.16zm613.34 135.14c-4.4 2.7-12.5 7.91-18 11.58-5.5 3.67-15.18 9.73-21.5 13.46-6.33 3.74-12.63 7.51-14 8.39-1.38 0.87-7.23 4.21-13 7.42-5.78 3.22-14.33 7.9-19 10.4-4.68 2.51-13.68 7.24-20 10.51-6.33 3.27-20.28 10.02-31 14.99-10.73 4.98-23.78 11.3-29 14.05-5.23 2.74-11.94 7.07-14.93 9.61-2.98 2.55-6.23 6.43-7.23 8.63-1.09 2.42-1.8 6.36-1.8 10 0 4.65 0.62 7.11 2.73 10.96 1.65 3 5.5 7.28 9.73 10.81 3.85 3.22 9.92 7.46 13.5 9.41 3.57 1.96 9.2 5.25 12.5 7.33 3.3 2.08 16.12 9.3 28.5 16.05 12.37 6.76 27.22 14.84 33 17.96 5.77 3.13 17.47 9.43 26 14 8.52 4.58 20.71 11.05 27.07 14.4 6.37 3.34 12.22 6.61 13 7.26 0.79 0.65 3.45 1.63 5.93 2.19 2.47 0.55 5.29 1.26 6.25 1.57 1.28 0.41 6.45-4.05 19.35-16.69 9.68-9.49 18.55-17.93 19.71-18.75 1.16-0.83 4.71-4.54 7.9-8.25l5.79-6.75c-0.05-102.36-0.47-124.81-1.5-138-0.8-10.18-1.46-22.1-1.47-26.5-0.02-4.95-0.8-10.67-2.04-15-1.11-3.85-3.29-8.58-4.85-10.5-1.58-1.95-3.91-3.61-5.24-3.75-1.32-0.13-6 1.68-10.4 4.03-4.4 2.36-11.6 6.49-16 9.18zm-1163.45-1.12c-2.25 4.02-2.36 5.3-3.28 38.16-0.53 18.7-0.69 59.31-0.37 90.25 0.54 50.48 0.78 56.67 2.35 60.39 1.34 3.18 4.3 6.18 12.75 12.91 6.05 4.83 16.4 13.56 23 19.42 6.6 5.86 13.24 11.3 14.75 12.09 2.55 1.33 3.2 1.21 9-1.68 3.44-1.71 10.75-5.6 16.25-8.65 5.5-3.05 13.37-7.44 17.5-9.76 4.12-2.32 16.95-9.29 28.5-15.48 11.55-6.19 25.72-13.73 31.5-16.75 5.77-3.02 16.24-8.59 23.25-12.37 7.01-3.78 12.86-6.86 13-6.84 0.14 0.01 5.42-2.81 11.75-6.29 6.32-3.47 14.2-8.16 17.5-10.43 3.3-2.26 7.45-5.62 9.23-7.46 1.78-1.85 3.69-4.93 4.25-6.85 0.56-1.93 1.02-7.67 1.02-12.75 0-6.75-0.48-10.25-1.75-12.93-0.96-2.02-3.1-4.65-4.75-5.85-1.65-1.21-10.2-5.24-19-8.97-8.8-3.73-26.58-11.75-39.5-17.82-12.93-6.07-31.6-15.2-41.5-20.28-9.9-5.09-22.95-11.82-29-14.96-6.05-3.14-16.85-8.86-24-12.72-7.15-3.85-17.28-9.59-22.5-12.74-5.23-3.15-14.79-8.48-21.25-11.85-9.79-5.11-12.55-6.12-16.5-6.06-2.61 0.05-5.9 0.54-7.31 1.1-1.41 0.55-3.61 2.88-4.89 5.17zm456.44 160.16c-2.89 4.95-7.72 13.27-10.73 18.5-3.02 5.22-6.94 12.42-8.71 16l-3.23 6.5c2.67 6.97 5.05 11.7 7.01 15 1.97 3.3 9.47 14.77 16.69 25.5 7.21 10.72 16.65 24.67 20.98 31 4.33 6.32 11.59 16.9 16.14 23.5 4.55 6.6 13.89 20.32 20.77 30.5 6.87 10.17 15.12 22.32 18.33 27 3.2 4.67 7.58 10.97 9.73 14 2.15 3.02 4.98 7.07 6.29 9 1.31 1.92 3.58 4.14 5.06 4.92 2.18 1.16 10.49 1.47 44.68 1.62 23.1 0.11 44.47-0.15 47.5-0.57 4.57-0.63 6-1.34 8.5-4.25 1.65-1.92 5.16-6.59 7.81-10.36 2.65-3.78 8.45-12.49 12.89-19.36 4.44-6.88 15.37-23.53 24.29-37 8.92-13.48 20.03-30.35 24.68-37.5 4.66-7.15 9.78-15.11 11.4-17.69 1.61-2.58 7.22-11.13 12.47-19 5.25-7.87 10.77-16.11 12.27-18.31 1.49-2.2 4.24-6.25 6.1-9 1.86-2.75 3.71-6.13 4.11-7.5 0.56-1.97-0.34-4.32-4.24-11-2.73-4.68-8.3-14.8-12.37-22.49-4.08-7.7-8.65-15.46-10.16-17.25l-2.75-3.26c-80.99 0-135.78-0.44-174-0.99-38.23-0.55-76.43-1.14-84.89-1.31-15.24-0.3-15.41-0.28-18.37 2.25-1.65 1.4-5.36 6.6-8.25 11.55zm-214.49 35.17c-4.13 2.01-25.28 12.52-47 23.36-21.73 10.84-50.75 25.44-64.5 32.45-13.75 7.01-30.36 15.5-36.9 18.88-7.15 3.69-12.83 7.33-14.24 9.14-1.31 1.67-3.01 6.09-3.86 10-0.82 3.85-1.52 11.05-1.54 16-0.01 4.95-0.54 12.15-1.16 16-0.63 3.85-1.17 9.76-1.22 13.14-0.06 4.81 0.35 6.64 1.92 8.39 1.1 1.24 9.42 5.85 18.5 10.26 9.07 4.4 21.45 10.22 27.5 12.94 6.05 2.71 15.95 7.09 22 9.73 6.05 2.63 17.97 7.73 26.5 11.32 8.52 3.59 19.55 8.11 24.5 10.03 4.95 1.93 15.07 5.74 22.5 8.47 7.42 2.73 20.47 7.21 29 9.96 8.52 2.75 19.55 6.16 24.5 7.57 4.95 1.41 14.4 4.2 21 6.21 6.6 2 18.07 5.2 25.5 7.11 7.42 1.91 15.07 3.88 17 4.38 1.92 0.5 10.02 2.46 18 4.37 7.97 1.91 15.62 3.67 17 3.92 1.37 0.25 8.35 1.68 15.5 3.18 7.15 1.5 14.8 3.13 17 3.61 2.2 0.49 9.4 1.79 16 2.89 6.6 1.11 14.25 2.44 17 2.96 2.75 0.51 8.37 1.44 12.5 2.06 4.12 0.61 11.55 1.85 16.5 2.75 7.51 1.37 9.91 1.44 14.5 0.43 3.44-0.77 6.55-2.24 8.33-3.95 1.55-1.5 4.79-5.66 7.18-9.23 2.39-3.58 5.91-10.78 7.81-16 1.9-5.23 4.17-11.98 5.05-15 0.88-3.03 1.61-7.64 1.61-10.25 0.01-3.34-0.78-6.17-2.68-9.5-1.49-2.62-7.31-11.73-12.94-20.25-5.62-8.53-13.48-20.23-17.46-26-3.97-5.78-11.96-17.48-17.75-26-5.78-8.53-12.21-17.98-14.29-21-2.07-3.03-6.46-9.33-9.76-14-3.29-4.68-9.84-14.13-14.55-21-4.71-6.88-10.78-15.65-13.5-19.5-2.72-3.85-6.48-9.25-8.37-12-1.89-2.75-5.29-6.69-7.56-8.75l-4.12-3.75c-18.21-0.06-29.8-0.95-37.5-2.03-7.7-1.07-16.25-2.35-19-2.85-2.75-0.49-9.28-2.34-14.5-4.12-5.23-1.77-14.68-5.93-21-9.23-6.33-3.31-14.18-7.88-17.46-10.15-3.28-2.27-7.02-5.7-8.31-7.62-1.3-1.93-3.38-3.99-4.63-4.59-1.68-0.8-3.41-0.73-6.68 0.26-2.43 0.74-7.8 2.98-11.92 5zm684.5 4.36c-7.15 4.04-17.05 9.24-22 11.55-4.95 2.31-12.83 5.34-17.5 6.74-4.68 1.39-11.88 3.21-16 4.03-4.13 0.83-10.2 1.98-13.5 2.57-3.3 0.58-11.74 1.52-18.75 2.07-7.01 0.55-13.61 1.01-14.65 1.01-1.04 0-3.4 1.48-5.25 3.3-1.84 1.81-5.8 6.87-8.79 11.25-2.99 4.37-13.15 19.42-22.58 33.45-9.44 14.02-20.22 30-23.97 35.5-3.74 5.5-9.51 14.05-12.81 19-3.3 4.95-7.63 11.36-9.6 14.26-1.98 2.89-5.18 7.7-7.1 10.67-1.93 2.97-9.09 14.1-15.93 24.74-6.83 10.63-13.31 21.35-14.38 23.83-1.53 3.5-1.85 5.94-1.47 11 0.33 4.32 1.72 9.43 4.14 15.25 2 4.81 5.63 11.78 8.06 15.5 2.43 3.71 5.47 7.72 6.75 8.92 1.28 1.2 4.8 3.19 7.83 4.43 4.68 1.92 7.28 2.24 17.5 2.2 6.6-0.02 17.4-0.8 24-1.71 6.6-0.92 14.7-2.14 18-2.71 3.3-0.57 8.25-1.45 11-1.95 2.75-0.5 8.82-1.6 13.5-2.43 4.67-0.84 10.97-1.99 14-2.56 3.02-0.57 7.52-1.44 10-1.92 2.47-0.49 7.87-1.61 12-2.51 4.12-0.89 9.3-2.03 11.5-2.54 2.2-0.5 9.17-2.07 15.5-3.5 6.32-1.42 13.52-3.07 16-3.66 2.47-0.59 8.55-2.14 13.5-3.44 4.95-1.31 14.85-4 22-5.99 7.15-1.99 17.95-5.11 24-6.93 6.05-1.83 14.37-4.3 18.5-5.5 4.12-1.19 14.47-4.77 23-7.95 8.52-3.18 19.77-7.45 25-9.5 5.22-2.04 19.85-8.26 32.5-13.82 12.65-5.56 33.57-15.36 46.5-21.77 12.92-6.41 24.52-12.73 25.77-14.04 1.25-1.3 2.92-5.07 3.71-8.37 0.79-3.3 1.69-10.05 2.01-15 0.32-4.95 1.05-14.4 1.64-21 0.58-6.6 0.79-13.47 0.47-15.25-0.33-1.79-1.84-4.66-3.35-6.39-1.51-1.72-5.45-4.71-8.75-6.63-3.3-1.93-15-8.45-26-14.49-11-6.04-27.2-14.8-36-19.47-8.8-4.67-17.35-9.31-19-10.3-1.65-0.99-18.3-9.44-37-18.78-18.7-9.34-36.03-17.87-38.5-18.95-2.48-1.09-6.75-2.24-9.5-2.55-3.62-0.41-6.11-0.08-9 1.21-2.2 0.98-9.85 5.08-17 9.13z"/>
</svg>